<?xml version="1.0" encoding="UTF-8" standalone="no"?>
<!-- Generator: Adobe Illustrator 16.0.4, SVG Export Plug-In . SVG Version: 6.00 Build 0)  -->

<svg
   xmlns:dc="http://purl.org/dc/elements/1.1/"
   xmlns:cc="http://creativecommons.org/ns#"
   xmlns:rdf="http://www.w3.org/1999/02/22-rdf-syntax-ns#"
   xmlns:svg="http://www.w3.org/2000/svg"
   xmlns="http://www.w3.org/2000/svg"
   xmlns:sodipodi="http://sodipodi.sourceforge.net/DTD/sodipodi-0.dtd"
   xmlns:inkscape="http://www.inkscape.org/namespaces/inkscape"
   version="1.1"
   id="AW"
   x="0px"
   y="0px"
   width="1190.551px"
   height="841.89px"
   viewBox="0 0 1190.551 841.89"
   enable-background="new 0 0 1190.551 841.89"
   xml:space="preserve"
   sodipodi:docname="core_white-orange_hex.svg"
   inkscape:version="0.92.2 (5c3e80d, 2017-08-06)"><metadata
     id="metadata4596"><rdf:RDF><cc:Work
         rdf:about=""><dc:format>image/svg+xml</dc:format><dc:type
           rdf:resource="http://purl.org/dc/dcmitype/StillImage" /><dc:title></dc:title></cc:Work></rdf:RDF></metadata><defs
     id="defs4594" /><sodipodi:namedview
     pagecolor="#ffffff"
     bordercolor="#666666"
     borderopacity="1"
     objecttolerance="10"
     gridtolerance="10"
     guidetolerance="10"
     inkscape:pageopacity="0"
     inkscape:pageshadow="2"
     inkscape:window-width="1920"
     inkscape:window-height="1017"
     id="namedview4592"
     showgrid="false"
     inkscape:pagecheckerboard="true"
     inkscape:zoom="1.0072575"
     inkscape:cx="595.27551"
     inkscape:cy="420.94501"
     inkscape:window-x="-8"
     inkscape:window-y="-8"
     inkscape:window-maximized="1"
     inkscape:current-layer="g4589" /><g
     id="g4589"><g
       id="g4587"
       transform="matrix(1.0079375,0,0,1.0079375,-284.03881,313.31851)"><path
         d="m 480.227,425.197 c 0,54.79 -44.418,99.212 -99.213,99.212 -54.797,0 -99.212,-44.422 -99.212,-99.212 0,-54.796 44.415,-99.213 99.212,-99.213 54.795,0 99.213,44.417 99.213,99.213 z"
         id="path4583"
         inkscape:connector-curvature="0"
         style="fill:#e95420" /><path
         d="m 329.518,425.195 c 0,7.045 -5.711,12.756 -12.756,12.756 -7.045,0 -12.756,-5.711 -12.756,-12.756 0,-7.044 5.711,-12.755 12.756,-12.755 7.045,0 12.756,5.711 12.756,12.755 z m 72.576,62.023 c 3.522,6.1 11.322,8.19 17.422,4.668 6.1,-3.521 8.19,-11.321 4.668,-17.423 -3.522,-6.101 -11.323,-8.189 -17.422,-4.668 -6.1,3.522 -8.19,11.322 -4.668,17.423 z M 424.185,375.93 c 3.522,-6.101 1.433,-13.9 -4.669,-17.422 -6.098,-3.521 -13.9,-1.432 -17.422,4.668 -3.522,6.1 -1.431,13.901 4.668,17.422 6.1,3.522 13.901,1.432 17.423,-4.668 z m -43.171,12.889 c 19.003,0 34.602,14.573 36.235,33.154 l 18.453,-0.288 c -0.874,-13.81 -6.859,-26.231 -16.09,-35.39 -4.889,1.887 -10.557,1.63 -15.449,-1.195 -4.896,-2.827 -7.953,-7.612 -8.761,-12.794 -4.585,-1.245 -9.408,-1.913 -14.388,-1.913 -8.731,0 -16.984,2.042 -24.31,5.673 l 8.981,16.132 c 4.659,-2.167 9.852,-3.379 15.329,-3.379 z m -36.378,36.378 c 0,-12.308 6.113,-23.187 15.468,-29.771 l -9.479,-15.84 c -10.978,7.33 -19.162,18.518 -22.611,31.625 4.084,3.291 6.701,8.331 6.701,13.984 0,5.653 -2.616,10.693 -6.702,13.986 3.45,13.107 11.633,24.293 22.612,31.625 l 9.479,-15.841 c -9.354,-6.582 -15.468,-17.46 -15.468,-29.768 z m 36.378,36.378 c -5.477,0 -10.67,-1.214 -15.329,-3.382 l -8.981,16.132 c 7.325,3.633 15.579,5.675 24.31,5.675 4.979,0 9.802,-0.669 14.388,-1.914 0.808,-5.182 3.865,-9.967 8.76,-12.794 4.893,-2.823 10.56,-3.081 15.449,-1.193 9.231,-9.159 15.217,-21.58 16.091,-35.391 l -18.453,-0.288 c -1.633,18.58 -17.231,33.155 -36.235,33.155 z"
         id="path4585"
         inkscape:connector-curvature="0"
         style="fill:#ffffff" /></g></g></svg>