<svg xmlns="http://www.w3.org/2000/svg" viewBox="0 0 116 114">

  <filter id="dropshadow" height="200%">
    <feGaussianBlur in="SourceAlpha" stdDeviation="3"/> <!-- stdDeviation is how much to blur -->
    <feOffset dx="0" dy="0" result="offsetblur"/> <!-- how much to offset -->
    <feComponentTransfer>
      <feFuncA type="linear" slope="0.4"/> <!-- slope is the opacity of the shadow -->
    </feComponentTransfer>
    <feMerge>
      <feMergeNode/> <!-- this contains the offset blurred image -->
      <feMergeNode in="SourceGraphic"/> <!-- this contains the element that the filter is applied to -->
    </feMerge>
  </filter>

  <g  id="layer4" transform="matrix(1, 0, 0, 1, -42, -140)" style="filter:url(#dropshadow)">

    <circle
      cx="100"
      cy="197"
      style="fill:#ffffff;"
      r="54" />

    <circle
       id="path3699"
       cx="100"
       cy="197"
       style="fill:#ffffff;stroke:#ff4500;stroke-width:4;stroke-linejoin:round;stroke-miterlimit:4;stroke-dasharray:none;stroke-opacity:1"
       r="48.54369" />
    <path
       id="path6325-0"
       style="fill:#ff9a00;stroke:none;"
       d="m 100.00255,152.79192 c 4.17932,0 7.6935,0.37743 11.88685,1.70595 1.28719,0.41861 2.3782,1.36675 1.71182,3.19759 l -12.87927,35.38532 c -0.12679,0.25885 -0.53138,0.37773 -0.72078,0.37605 m -0.001,-40.66561 c -4.179342,0 -7.693565,0.37743 -11.886947,1.70598 -1.287206,0.41862 -2.378209,1.36678 -1.711832,3.19764 l 12.87939,35.38584 c 0.126774,0.25885 0.531381,0.37774 0.720769,0.37606"
       />
    <path
       id="path6325-0-3"
       style="fill:#ff9a00;stroke:none;"
       d="m 128.50725,162.89283 c 3.20154,2.68641 5.65095,5.23441 8.00929,8.94755 0.71696,1.14807 0.94327,2.57567 -0.74404,3.54984 l -32.61134,18.8281 c -0.26351,0.11678 -0.64986,-0.0522 -0.79387,-0.17524 m 26.13858,-31.15231 c -3.20155,-2.68643 -6.13621,-4.6562 -10.2025,-6.33393 -1.25514,-0.50674 -2.70036,-0.48166 -3.36675,1.34919 l -12.87939,35.38584 c -0.0693,0.27978 0.16426,0.63094 0.31041,0.75138"
       />
    <path
       id="path6325-0-9"
       style="fill:#ff9a00;stroke:none;"
       d="m 143.80037,189.17156 c 0.72573,4.11583 0.96428,7.64216 0.3841,12.0025 -0.18873,1.34033 -0.93301,2.5794 -2.85176,2.24107 l -37.0842,-6.53901 c -0.27693,-0.0799 -0.46427,-0.45771 -0.4955,-0.64453 m 40.04764,-7.06249 c -0.72574,-4.11584 -1.70767,-7.51114 -3.74421,-11.41012 -0.63578,-1.19495 -1.75898,-2.10473 -3.44632,-1.13056 l -32.61176,18.82841 c -0.23293,0.16978 -0.27973,0.58891 -0.24519,0.77512"
       />
    <path
       id="path6325-0-6"
       style="fill:#ff9a00;stroke:none;"
       d="m 71.502689,162.91352 c 3.201545,-2.68641 6.136171,-4.65616 10.202419,-6.33388 1.255122,-0.50672 2.700337,-0.48169 3.366703,1.34915 l 12.87914,35.38536 c 0.0693,0.27979 -0.16426,0.63092 -0.31042,0.75139 M 71.500418,162.91451 c -3.201562,2.68643 -5.651006,5.23446 -8.009347,8.94764 -0.716973,1.14808 -0.943265,2.5757 0.744064,3.54988 l 32.611766,18.82842 c 0.2635,0.1168 0.64986,-0.0522 0.79386,-0.17523"
       />
    <path
       id="path6325-0-2"
       style="fill:#ff9a00;stroke:none;"
       d="m 56.180008,189.25649 c 0.725735,-4.11583 1.707658,-7.51108 3.744167,-11.41003 0.635766,-1.19494 1.758954,-2.10473 3.446261,-1.13056 l 32.611268,18.82821 c 0.23293,0.16978 0.27971,0.58889 0.24519,0.77513 M 56.178905,189.2587 c -0.725735,4.11585 -0.964276,7.64223 -0.384084,12.0026 0.188739,1.34035 0.933046,2.57942 2.851805,2.24109 l 37.084738,-6.53903 c 0.27693,-0.0799 0.46427,-0.45771 0.4955,-0.64452"
       />

    <path
      style="fill:#ff4500;stroke:none;"
      id="path6402"
      d="M 149.00653,205.93866 A 49.842934,49.520863 0 0 1 99.95678,246.53273 49.842934,49.520863 0 0 1 50.945288,205.89307 l 49.034815,-8.8812 z" />
  </g>
</svg>
